<?xml version="1.0" encoding="UTF-8" standalone="no"?><!DOCTYPE svg PUBLIC "-//W3C//DTD SVG 1.1//EN" "http://www.w3.org/Graphics/SVG/1.1/DTD/svg11.dtd"><svg width="100%" height="100%" viewBox="0 0 2890 1831" version="1.1" xmlns="http://www.w3.org/2000/svg" xmlns:xlink="http://www.w3.org/1999/xlink" xml:space="preserve" xmlns:serif="http://www.serif.com/" style="fill-rule:evenodd;clip-rule:evenodd;stroke-linejoin:round;stroke-miterlimit:2;"><rect x="0" y="0" width="962.246" height="1049.035" style="fill:#468966;"/><rect x="0" y="1047.974" width="1444.819" height="782.497" style="fill:#bf712c;"/><rect x="1444.819" y="1046.639" width="1444.819" height="782.497" style="fill:#2d403b;"/><rect x="963.696" y="0" width="962.246" height="1049.035" style="fill:#f9f9f3;"/><rect x="1927.392" y="0" width="962.246" height="1049.035" style="fill:#862800;"/><g transform="matrix(2.816007,0,0,2.816007,-10356.782078,-2672.665583)"><text x="4531.944px" y="1427.043px" style="font-family:'Karla-Bold', 'Karla', sans-serif;font-weight:700;font-size:22.195px;fill:#d2d2d2;">#<tspan x="4551.431px 4569.297px 4588.973px 4606.617px 4625.094px 4643.338px " y="1427.043px 1427.043px 1427.043px 1427.043px 1427.043px 1427.043px ">2D403B</tspan></text><text x="4436.219px" y="1464.033px" style="font-family:'Karla-Bold', 'Karla', sans-serif;font-weight:700;font-size:22.195px;fill:#d2d2d2;">r<tspan x="4449.369px 4459.789px 4477.434px 4494.79px 4504.844px 4514.898px 4532.255px 4542.675px 4560.586px 4578.231px 4588.285px 4598.339px 4616.405px 4626.826px 4644.182px " y="1464.033px 1464.033px 1464.033px 1464.033px 1464.033px 1464.033px 1464.033px 1464.033px 1464.033px 1464.033px 1464.033px 1464.033px 1464.033px 1464.033px 1464.033px ">:45  g:64  b:59</tspan></text><g transform="matrix(22.194544,0,0,22.194544,4657.720372,1501.024326)"></g><text x="4343.523px" y="1501.024px" style="font-family:'Karla-Bold', 'Karla', sans-serif;font-weight:700;font-size:22.195px;fill:#d2d2d2;">c<tspan x="4359.714px 4370.135px 4385.615px 4403.526px 4413.58px 4423.635px 4449.136px 4459.556px 4476.913px 4495.389px 4505.444px 4515.498px 4531.112px 4541.532px 4559.443px 4577.92px 4587.974px 4598.028px 4615.595px 4626.015px 4643.372px " y="1501.024px 1501.024px 1501.024px 1501.024px 1501.024px 1501.024px 1501.024px 1501.024px 1501.024px 1501.024px 1501.024px 1501.024px 1501.024px 1501.024px 1501.024px 1501.024px 1501.024px 1501.024px 1501.024px 1501.024px 1501.024px ">:76  m:50  y:60  k:58</tspan></text></g><g transform="matrix(2.816007,0,0,2.816007,-11801.601114,-2671.330467)"><text x="4237.15px" y="1427.043px" style="font-family:'Karla-Bold', 'Karla', sans-serif;font-weight:700;font-size:22.195px;fill:#d2d2d2;">#<tspan x="4256.637px 4275.458px 4292.026px 4307.507px 4319.858px 4337.725px " y="1427.043px 1427.043px 1427.043px 1427.043px 1427.043px 1427.043px ">BF712A</tspan></text><text x="4237.15px" y="1464.033px" style="font-family:'Karla-Bold', 'Karla', sans-serif;font-weight:700;font-size:22.195px;fill:#d2d2d2;">r<tspan x="4250.301px 4260.721px 4273.072px 4291.05px 4303.401px 4313.455px 4323.509px 4340.865px 4351.286px 4363.637px 4375.988px 4394.232px 4404.286px 4414.341px 4432.407px 4442.827px 4460.472px " y="1464.033px 1464.033px 1464.033px 1464.033px 1464.033px 1464.033px 1464.033px 1464.033px 1464.033px 1464.033px 1464.033px 1464.033px 1464.033px 1464.033px 1464.033px 1464.033px 1464.033px ">:191  g:113  b:42</tspan></text><g transform="matrix(22.194544,0,0,22.194544,4542.425234,1501.024326)"></g><text x="4237.15px" y="1501.024px" style="font-family:'Karla-Bold', 'Karla', sans-serif;font-weight:700;font-size:22.195px;fill:#d2d2d2;">c<tspan x="4253.341px 4263.762px 4281.628px 4293.98px 4304.034px 4314.088px 4339.589px 4350.01px 4367.366px 4385.343px 4395.397px 4405.452px 4421.065px 4431.486px 4449.463px 4467.94px 4477.994px 4488.049px 4505.616px 4516.036px 4528.387px " y="1501.024px 1501.024px 1501.024px 1501.024px 1501.024px 1501.024px 1501.024px 1501.024px 1501.024px 1501.024px 1501.024px 1501.024px 1501.024px 1501.024px 1501.024px 1501.024px 1501.024px 1501.024px 1501.024px 1501.024px 1501.024px ">:21  m:59  y:90  k:10</tspan></text></g><g transform="matrix(2.816007,0,0,2.816007,-12040.178753,-3585.367635)"><text x="4384.872px" y="1427.043px" style="font-family:'Karla-Bold', 'Karla', sans-serif;font-weight:700;font-size:22.195px;fill:#d2d2d2;">#<tspan x="4404.359px 4422.004px 4439.915px 4458.703px 4476.68px 4494.591px " y="1427.043px 1427.043px 1427.043px 1427.043px 1427.043px 1427.043px ">468966</tspan></text><text x="4334.352px" y="1464.033px" style="font-family:'Karla-Bold', 'Karla', sans-serif;font-weight:700;font-size:22.195px;fill:#d2d2d2;">r<tspan x="4347.502px 4357.923px 4373.403px 4391.88px 4401.935px 4419.291px 4429.711px 4442.062px 4460.306px 4475.787px 4485.841px 4503.907px 4514.328px 4526.679px 4545.156px " y="1464.033px 1464.033px 1464.033px 1464.033px 1464.033px 1464.033px 1464.033px 1464.033px 1464.033px 1464.033px 1464.033px 1464.033px 1464.033px 1464.033px 1464.033px ">:70 g:137 b:102</tspan></text><g transform="matrix(22.194544,0,0,22.194544,4573.748036,1501.024326)"></g><text x="4319.188px" y="1501.024px" style="font-family:'Karla-Bold', 'Karla', sans-serif;font-weight:700;font-size:22.195px;fill:#d2d2d2;">c<tspan x="4335.379px 4345.799px 4361.28px 4378.924px 4388.978px 4414.48px 4424.9px 4442.767px 4458.248px 4468.302px 4483.916px 4494.336px 4509.817px 4522.168px 4532.222px 4549.789px 4560.209px " y="1501.024px 1501.024px 1501.024px 1501.024px 1501.024px 1501.024px 1501.024px 1501.024px 1501.024px 1501.024px 1501.024px 1501.024px 1501.024px 1501.024px 1501.024px 1501.024px 1501.024px ">:74 m:27 y:71 k:9</tspan></text></g><g transform="matrix(2.816007,0,0,2.816007,-11076.482734,-3585.367635)"><text x="4386.992px" y="1427.043px" style="font-family:'Karla-Bold', 'Karla', sans-serif;font-weight:700;font-size:22.195px;fill:#2d403b;">#<tspan x="4406.479px 4423.047px 4441.025px 4457.593px 4475.57px 4492.139px " y="1427.043px 1427.043px 1427.043px 1427.043px 1427.043px 1427.043px ">F9F9F3</tspan></text><text x="4318.35px" y="1464.033px" style="font-family:'Karla-Bold', 'Karla', sans-serif;font-weight:700;font-size:22.195px;fill:#2d403b;">r<tspan x="4331.5px 4341.92px 4359.787px 4377.432px 4395.409px 4405.463px 4422.82px 4433.24px 4451.107px 4468.751px 4486.729px 4496.783px 4514.849px 4525.27px 4543.136px 4560.781px " y="1464.033px 1464.033px 1464.033px 1464.033px 1464.033px 1464.033px 1464.033px 1464.033px 1464.033px 1464.033px 1464.033px 1464.033px 1464.033px 1464.033px 1464.033px 1464.033px ">:249 g:249 b:243</tspan></text><g transform="matrix(22.194544,0,0,22.194544,4548.01901,1501.024326)"></g><text x="4344.917px" y="1501.024px" style="font-family:'Karla-Bold', 'Karla', sans-serif;font-weight:700;font-size:22.195px;fill:#2d403b;">c<tspan x="4361.108px 4371.528px 4383.879px 4393.933px 4419.435px 4429.855px 4442.207px 4452.261px 4467.875px 4478.295px 4495.94px 4505.994px 4523.561px 4533.981px " y="1501.024px 1501.024px 1501.024px 1501.024px 1501.024px 1501.024px 1501.024px 1501.024px 1501.024px 1501.024px 1501.024px 1501.024px 1501.024px 1501.024px ">:1 m:1 y:4 k:0</tspan></text></g><g transform="matrix(2.816007,0,0,2.816007,-10112.786715,-3585.367635)"><text x="4383.79px" y="1427.043px" style="font-family:'Karla-Bold', 'Karla', sans-serif;font-weight:700;font-size:22.195px;fill:#d2d2d2;">#<tspan x="4403.277px 4422.065px 4439.976px 4457.843px 4476.63px 4495.107px " y="1427.043px 1427.043px 1427.043px 1427.043px 1427.043px 1427.043px ">862800</tspan></text><text x="4347.297px" y="1464.033px" style="font-family:'Karla-Bold', 'Karla', sans-serif;font-weight:700;font-size:22.195px;fill:#d2d2d2;">r<tspan x="4360.447px 4370.868px 4383.219px 4401.463px 4419.108px 4429.162px 4446.518px 4456.938px 4474.583px 4493.06px 4503.114px 4521.18px 4531.601px " y="1464.033px 1464.033px 1464.033px 1464.033px 1464.033px 1464.033px 1464.033px 1464.033px 1464.033px 1464.033px 1464.033px 1464.033px 1464.033px ">:134 g:40 b:0</tspan></text><g transform="matrix(22.194544,0,0,22.194544,4596.752681,1501.024326)"></g><text x="4296.183px" y="1501.024px" style="font-family:'Karla-Bold', 'Karla', sans-serif;font-weight:700;font-size:22.195px;fill:#d2d2d2;">c<tspan x="4312.374px 4322.794px 4340.661px 4359.449px 4369.503px 4395.004px 4405.425px 4423.402px 4441.269px 4451.323px 4466.937px 4477.357px 4489.708px 4508.185px 4526.662px 4536.716px 4554.283px 4564.704px 4582.948px " y="1501.024px 1501.024px 1501.024px 1501.024px 1501.024px 1501.024px 1501.024px 1501.024px 1501.024px 1501.024px 1501.024px 1501.024px 1501.024px 1501.024px 1501.024px 1501.024px 1501.024px 1501.024px 1501.024px ">:28 m:92 y:100 k:33</tspan></text></g></svg>